<svg class="main-nav__logo" data-name="Logo" xmlns="http://www.w3.org/2000/svg" width="33" height="38">
	<defs>
		<style>
			.cls-1{fill:#fdc305;}
			.cls-2{fill:#f06351;}
			.cls-3{fill:#e55645;}
			.cls-4{fill:#111;}
			.cls-5{fill:#444;}
			
			.tablet,
			.desktop {
				display: none;
			}
				
			@media (min-width: 768px) {
				.tablet {
					display: block;
				}
			
				.mobile,
				.desktop {
					display: none;
				}
			}
			
			@media (min-width: 1440px) {
				.desktop {
					display: block;
				}
				
				.tablet {
					display: none;
				}
			}
		</style>
	</defs>
	<title>Logo</title>
	<g class="mobile">
		<path class="cls-1" d="M6.07,20.72l0-2.26a143.26,143.26,0,0,1,20.17-1.33c0,.6,0,1.21-.06,1.82a25.52,25.52,0,0,1,6-1.82A16.67,16.67,0,0,0,.19,20.39Z" transform="translate(0 0)"></path>
		<path class="cls-1" d="M27.24,24.23c-1.16,1.28-1.39,1.2-1.39,3.45,0,.91,0,4.9,0,9.18A16.64,16.64,0,0,0,33.32,23,17.3,17.3,0,0,0,33,19.9,33.11,33.11,0,0,0,27.24,24.23Z" transform="translate(0 0)"></path>
		<path class="cls-1" d="M6.36,25.72s-3.79-1.44-5.19-1.83A8.54,8.54,0,0,0,0,23.61a16.65,16.65,0,0,0,8.68,14Z" transform="translate(0 0)"></path>
		<path class="cls-2" d="M26.29,17.12A89.8,89.8,0,0,0,24.89.65S24.75-.64,24,.41a14.22,14.22,0,0,0-1.2,3.94,70.34,70.34,0,0,0-12.77.34C9.24,2,7.85.75,7.18,1s-.72,3.31-.72,3.31l-.33,14.1A143.22,143.22,0,0,1,26.29,17.12Z" transform="translate(0 0)"></path>
		<path d="M12.41,14c0-.09,1,.68,1.41.92s.61.42.61.59-.27.34-.63.34-.91-.12-1-.27l.94,0h.29A8.34,8.34,0,0,1,12.41,14Z" transform="translate(0 0)"></path>
		<path d="M19.89,14.11,18.8,15.44c0,.06-.17.35.18.3a7.35,7.35,0,0,0,1.22-.29c.11,0,.07-.19-.11-.17s-.69.05-1,.11l.84-1.26S20,14,19.89,14.11Z" transform="translate(0 0)"></path>
		<path d="M16.75,20.2a2.3,2.3,0,0,0,1.09-1c.28-.65,0-.91-.44-1a2.43,2.43,0,0,0-1.74.34c-.39.36-.34.72-.05,1A5.34,5.34,0,0,0,16.75,20.2Z" transform="translate(0 0)"></path>
		<path class="cls-2" d="M16.35,21.45a1.92,1.92,0,0,1-.46.6,1.73,1.73,0,0,1-1,.38A2.15,2.15,0,0,1,13.42,22a2.3,2.3,0,0,1-.53-.44,1.07,1.07,0,0,0-.36-.26s.75,4.1,2.57,4.75,2.14-.75,2.2-1.13a5.61,5.61,0,0,0-.82-3.23C16.46,21.38,16.45,21.58,16.35,21.45Z" transform="translate(0 0)"></path>
		<path d="M14.71,22.59h0a3.44,3.44,0,0,1-2.33-1.42.14.14,0,0,1,0-.2.14.14,0,0,1,.2,0,3.26,3.26,0,0,0,2.11,1.3h0a2.09,2.09,0,0,0,1.63-1l.14-.19.1.21s.37.76,1,.8,1.05-.41,1.61-1.28a.14.14,0,0,1,.2,0,.15.15,0,0,1,.05.2c-.64,1-1.27,1.44-1.88,1.4a1.55,1.55,0,0,1-1.12-.76A2.26,2.26,0,0,1,14.71,22.59Z" transform="translate(0 0)"></path>
		<path class="cls-2" d="M26.24,18.92a58.63,58.63,0,0,0-5.07,5.19A31.63,31.63,0,0,1,15.88,29c-.22-.53-1.62-1.51-1.62-1.51s-3.13-2.14-5.18-3.82a34.13,34.13,0,0,1-3.13-3l-2-.11a22.57,22.57,0,0,0,12,8.8c.86-.14,3.27-1.86,5.07-3.26a58.13,58.13,0,0,0,5.94-5.89,6.15,6.15,0,0,0,1.14-2C27,18.6,26.24,18.92,26.24,18.92Z" transform="translate(0 0)"></path>
	</g>
	<g class="tablet">
		<path class="cls-1" d="M59.62,21.74A25.5,25.5,0,1,0,32.37,56.79c-.58-2.08-1.16-4.38-1.69-6.82a33.67,33.67,0,0,0,4.75,2.54h0s.12,2.15.28,4.55A25.26,25.26,0,0,0,41,56.59a2.14,2.14,0,0,1,0-.76c.29-1.85,1.09-5.21,1.25-7.37a15.34,15.34,0,0,0,2.88-3.7v0c0,.14,0,.28,0,.43-.56,4.24-1.7,8.77-2.4,10a5.76,5.76,0,0,1-.82,1.14,24.79,24.79,0,0,0,4-1.31A25.49,25.49,0,0,0,59.62,21.74Zm-1.47,3.77c-.43.43-1.34.72-1.48-.58s-.2-2.2-.2-2.2-1.92-3.41-2.64-3.46-5.8,3.46-7.14,4.94c-1.16,1.29-1.4,1.2-1.4,3.46,0,1.7.22,8.13.1,13h0l-8.11,2.16a64.34,64.34,0,0,1-7.77,1.77l-1-5.8h-.13L25.81,25.7S22,24.26,20.63,23.88a3.7,3.7,0,0,0-4,.62,5.09,5.09,0,0,0-1.73,3.84,6.41,6.41,0,0,1,.48,1.44c.05.48-1.2.43-2,.43s-.91-1.44-.29-3.12A23,23,0,0,1,15,23.4,11.85,11.85,0,0,1,17,20.52s.15-.34,1.25-.24,7.25.43,7.25.43l0-2.26a144.54,144.54,0,0,1,20.16-1.34c0,.61,0,1.22-.06,1.82a22.52,22.52,0,0,1,8.11-2,.89.89,0,0,1,.76.38c.34.43,2.4,3,2.64,3.36a28.83,28.83,0,0,1,1.83,3A6.35,6.35,0,0,1,58.15,25.51Z" transform="translate(0 0)"></path>
		<path class="cls-2" d="M56.21,19.43c.47.59.88,1.12,1,1.28a28.83,28.83,0,0,1,1.83,3,6.35,6.35,0,0,1-.87,1.78c-.43.43-1.34.72-1.48-.58s-.2-2.2-.2-2.2-1.92-3.41-2.64-3.46-5.8,3.46-7.14,4.94c-1.16,1.29-1.4,1.2-1.4,3.46,0,1.49.17,6.62.13,11.17,1.8.21,4.45.71,5.25,1.88,0,0-.29-7.15,7.77-3.41,0,0,.29-9.74,11.42-7.24A43.52,43.52,0,0,0,56.21,19.43Z" transform="translate(0 0)"></path>
		<path class="cls-2" d="M45.74,17.11A90.27,90.27,0,0,0,44.33.65s-.14-1.29-.86-.24a14.22,14.22,0,0,0-1.2,3.94,70.84,70.84,0,0,0-12.76.33C28.69,2,27.3.75,26.63,1s-.72,3.31-.72,3.31l-.33,14.1A144.54,144.54,0,0,1,45.74,17.11Z" transform="translate(0 0)"></path>
		<path class="cls-3" d="M45.15,44.76c.13-1.06.2-2.47.24-4l-8.11,2.16a64.34,64.34,0,0,1-7.77,1.77l1.1,5c0,.11.05.22.07.33a33.67,33.67,0,0,0,4.75,2.54,42,42,0,0,0,6.84-4.12v.07A15.34,15.34,0,0,0,45.15,44.76Z" transform="translate(0 0)"></path>
		<path d="M31.86,14c-.05-.09,1,.68,1.4.92s.61.43.61.59-.26.34-.62.34-.91-.12-1-.26.6,0,.94,0h.28A8.09,8.09,0,0,1,31.86,14Z" transform="translate(0 0)"></path>
		<path d="M39.33,14.11s-1,1.27-1.09,1.33-.16.34.19.29a8.09,8.09,0,0,0,1.22-.28c.1-.06.07-.2-.12-.18s-.68.05-1,.11l.84-1.26S39.41,14,39.33,14.11Z" transform="translate(0 0)"></path>
		<path d="M36.2,20.19a2.31,2.31,0,0,0,1.09-1c.28-.66,0-.92-.44-1a2.43,2.43,0,0,0-1.74.34c-.4.37-.34.73,0,.95A4.57,4.57,0,0,0,36.2,20.19Z" transform="translate(0 0)"></path>
		<path class="cls-2" d="M35.79,21.44a2,2,0,0,1-.45.6,1.83,1.83,0,0,1-1,.39A2.13,2.13,0,0,1,32.87,22a2,2,0,0,1-.54-.44.89.89,0,0,0-.35-.25s.75,4.09,2.56,4.74,2.15-.75,2.2-1.13a5.56,5.56,0,0,0-.82-3.22C35.91,21.37,35.89,21.58,35.79,21.44Z" transform="translate(0 0)"></path>
		<path d="M34.15,22.58h0a3.44,3.44,0,0,1-2.33-1.42.14.14,0,0,1,0-.2.14.14,0,0,1,.2,0,3.23,3.23,0,0,0,2.1,1.3h0a2.08,2.08,0,0,0,1.63-1l.14-.19.1.21s.38.76,1,.8,1.05-.41,1.62-1.28a.14.14,0,0,1,.2,0,.15.15,0,0,1,0,.2c-.63,1-1.26,1.44-1.88,1.41a1.54,1.54,0,0,1-1.11-.77A2.26,2.26,0,0,1,34.15,22.58Z" transform="translate(0 0)"></path>
		<path class="cls-4" d="M41.05,29.22l-3.12,1.3,1.15-5.61-7.47,9.72,3.12-1.31-1.14,5.62ZM33.7,33l4.11-5.38-.8,4,2-.82-4.12,5.39.81-4Z" transform="translate(0 0)"></path>
		<path class="cls-2" d="M45.68,18.92a56.19,56.19,0,0,0-5.06,5.19A31.82,31.82,0,0,1,35.33,29c-.22-.53-1.62-1.51-1.62-1.51s-3.13-2.14-5.19-3.82a35.24,35.24,0,0,1-3.12-3l-2-.11a22.56,22.56,0,0,0,12,8.8c.87-.14,3.28-1.86,5.08-3.26a56,56,0,0,0,5.93-5.89,6,6,0,0,0,1.14-2C46.4,18.59,45.68,18.92,45.68,18.92Z" transform="translate(0 0)"></path>
		<path class="cls-2" d="M25.81,25.7S22,24.26,20.63,23.88a3.7,3.7,0,0,0-4,.62,5.09,5.09,0,0,0-1.73,3.84,6.41,6.41,0,0,1,.48,1.44c.05.48-1.2.43-2,.43s-.91-1.44-.29-3.12A23,23,0,0,1,15,23.4C9.55,26.23,0,32.75,0,32.75A46.72,46.72,0,0,1,8.16,33c5.23.53,4.94,4.66,4.94,4.66a38.45,38.45,0,0,1,5.61-1.11C20.82,36.4,21,38.65,21,38.65l.53,3.84a19.16,19.16,0,0,1,2.63-2.35,6.06,6.06,0,0,1,4.37-1.29h0Z" transform="translate(0 0)"></path>
		<path class="cls-4" d="M89.56,37.12a5.92,5.92,0,0,1-1-3.69V28.09a5.94,5.94,0,0,1,1-3.72,5.21,5.21,0,0,1,6.61-.15,4.8,4.8,0,0,1,.94,3.19v1.25H94.16V27.28a7.49,7.49,0,0,0-.06-1.06,1.26,1.26,0,0,0-.34-.68,1.12,1.12,0,0,0-.81-.26,1,1,0,0,0-1.07.53,4,4,0,0,0-.24,1.57v6.77a3.46,3.46,0,0,0,.27,1.56,1.07,1.07,0,0,0,1,.52,1,1,0,0,0,1-.53,4.11,4.11,0,0,0,.22-1.55V32.69H97.1v1.24a5.18,5.18,0,0,1-.93,3.3,4,4,0,0,1-3.24,1.17A4,4,0,0,1,89.56,37.12Z" transform="translate(0 0)"></path>
		<path class="cls-4" d="M101.12,23.29h3.36l2.88,14.91h-2.8L104,34.92h-2.36l-.57,3.28H98.23ZM103.71,33l-.9-6-.88,6Z" transform="translate(0 0)"></path>
		<path class="cls-4" d="M109.51,25.54h-2.3V23.29h7.62v2.25h-2.27V38.2h-3Z" transform="translate(0 0)"></path>
		<path class="cls-5" d="M120.81,23.29h5.78v1.55h-3.7v4.93h3v1.47h-3v5.47h3.73V38.2h-5.81Z" transform="translate(0 0)"></path>
		<path class="cls-5" d="M128.3,23.29h1.42l4.23,9.9v-9.9h1.73V38.2h-1.33L130.06,28V38.2H128.3Z" transform="translate(0 0)"></path>
		<path class="cls-5" d="M138,23.29h5.78v1.55h-3.7v4.93h3v1.47h-3v5.47h3.74V38.2H138Z" transform="translate(0 0)"></path>
		<path class="cls-5" d="M145.51,23.29h3a5,5,0,0,1,3.32.93,3.87,3.87,0,0,1,1.06,3c0,1.91-.62,3.07-1.85,3.48l2.12,7.47h-2l-2-7h-1.62v7h-2.07Zm2.87,6.42a2.79,2.79,0,0,0,1.92-.53,2.56,2.56,0,0,0,.58-1.93,4.27,4.27,0,0,0-.2-1.45A1.43,1.43,0,0,0,150,25a3.34,3.34,0,0,0-1.45-.25h-.93v4.93Z" transform="translate(0 0)"></path>
		<path class="cls-5" d="M155.68,37.1a6.6,6.6,0,0,1-.9-3.8v-5a9.39,9.39,0,0,1,.36-2.84,3.2,3.2,0,0,1,1.23-1.71,4.2,4.2,0,0,1,2.4-.6,3.76,3.76,0,0,1,3,1.05,5,5,0,0,1,.91,3.29v.56h-1.95V27.6a8.55,8.55,0,0,0-.13-1.65,1.4,1.4,0,0,0-.54-.87,2.11,2.11,0,0,0-1.23-.3,1.8,1.8,0,0,0-1.29.4,1.83,1.83,0,0,0-.54,1.06,10.29,10.29,0,0,0-.12,1.76v5.52a5.48,5.48,0,0,0,.41,2.46,1.67,1.67,0,0,0,1.6.75,1.64,1.64,0,0,0,1.59-.81,5.81,5.81,0,0,0,.43-2.6v-1H159V30.82h3.77V38.2h-1.31l-.2-1.71a2.62,2.62,0,0,1-2.65,1.89A3.32,3.32,0,0,1,155.68,37.1Z" transform="translate(0 0)"></path>
		<path class="cls-5" d="M167.07,32.93l-3.22-9.64h1.94l2.28,7.2,2.24-7.2h1.95l-3.2,9.64V38.2h-2Z" transform="translate(0 0)"></path>
	</g>
	<g class="desktop">
		<path class="cls-1" d="M59.88,24A25.61,25.61,0,1,0,32.51,59.2c-.58-2.09-1.17-4.4-1.69-6.85a32.32,32.32,0,0,0,4.76,2.55h0s.12,2.16.28,4.57A25.48,25.48,0,0,0,41.19,59a2.14,2.14,0,0,1,0-.76c.29-1.87,1.09-5.24,1.25-7.41a15.22,15.22,0,0,0,2.9-3.71v0l-.06.44c-.55,4.26-1.7,8.81-2.4,10.07a5.58,5.58,0,0,1-.83,1.15A25.64,25.64,0,0,0,59.88,24Zm-1.47,3.79c-.44.43-1.35.72-1.5-.58S56.72,25,56.72,25s-1.93-3.43-2.65-3.47-5.83,3.47-7.18,5c-1.17,1.29-1.4,1.2-1.4,3.47,0,1.71.22,8.17.1,13.11h0l-8.15,2.17A64,64,0,0,1,29.64,47l-1-5.83H28.5L25.93,28s-3.81-1.44-5.21-1.83a3.76,3.76,0,0,0-4,.63,5.07,5.07,0,0,0-1.73,3.85,7.14,7.14,0,0,1,.48,1.45c.05.48-1.2.43-2,.43s-.92-1.44-.29-3.13A22.81,22.81,0,0,1,15,25.66a11.87,11.87,0,0,1,2.07-2.89s.14-.34,1.25-.24,7.28.43,7.28.43l.05-2.27a142.77,142.77,0,0,1,20.24-1.34c0,.61,0,1.22,0,1.83a22.52,22.52,0,0,1,8.14-2,.91.91,0,0,1,.77.39c.34.43,2.41,3,2.65,3.37a28,28,0,0,1,1.83,3A6.24,6.24,0,0,1,58.41,27.78Z"></path>
		<path class="cls-2" d="M56.46,21.67c.47.6.88,1.13,1,1.29a28,28,0,0,1,1.83,3,6.24,6.24,0,0,1-.86,1.78c-.44.43-1.35.72-1.5-.58S56.72,25,56.72,25s-1.93-3.43-2.65-3.47-5.83,3.47-7.18,5c-1.17,1.29-1.4,1.2-1.4,3.47,0,1.5.17,6.65.13,11.23,1.81.2,4.47.7,5.27,1.88,0,0-.29-7.18,7.81-3.42,0,0,.28-9.79,11.46-7.28A43.72,43.72,0,0,0,56.46,21.67Z"></path>
		<path class="cls-2" d="M45.93,19.35a90.45,90.45,0,0,0-1.4-16.53s-.15-1.3-.87-.24a14.26,14.26,0,0,0-1.2,4,70.88,70.88,0,0,0-12.82.34c-.82-2.75-2.22-4-2.89-3.67S26,6.53,26,6.53l-.33,14.16A142.77,142.77,0,0,1,45.93,19.35Z"></path>
		<path class="cls-3" d="M45.35,47.12c.13-1.07.2-2.49.24-4.06l-8.15,2.17A64,64,0,0,1,29.64,47l1.11,5c0,.11,0,.22.07.33a32.32,32.32,0,0,0,4.76,2.55,42.42,42.42,0,0,0,6.88-4.13v.06A15.22,15.22,0,0,0,45.35,47.12Z"></path>
		<path d="M32,16.22c-.05-.1,1,.68,1.41.92s.61.42.61.59-.26.34-.62.34-.92-.12-1-.26.6,0,.94,0h.29A8.08,8.08,0,0,1,32,16.22Z"></path>
		<path d="M39.5,16.33s-1,1.28-1.09,1.34-.17.34.19.29a8.09,8.09,0,0,0,1.22-.28c.11-.06.07-.2-.12-.18s-.68.05-1,.11l.85-1.27S39.58,16.22,39.5,16.33Z"></path>
		<path d="M36.36,22.44a2.3,2.3,0,0,0,1.09-1c.28-.66,0-.91-.44-1a2.45,2.45,0,0,0-1.75.34c-.39.37-.34.73,0,1A5.16,5.16,0,0,0,36.36,22.44Z"></path>
		<path class="cls-2" d="M36,23.7a2.05,2.05,0,0,1-.46.6,1.73,1.73,0,0,1-1,.38A2.18,2.18,0,0,1,33,24.24a2,2,0,0,1-.53-.45,1,1,0,0,0-.36-.25s.75,4.11,2.57,4.77,2.16-.76,2.21-1.14a5.63,5.63,0,0,0-.82-3.24C36.07,23.63,36.05,23.83,36,23.7Z"></path>
		<path d="M34.3,24.84h0a3.5,3.5,0,0,1-2.35-1.43.15.15,0,0,1,0-.2.14.14,0,0,1,.2,0,3.22,3.22,0,0,0,2.11,1.31h0a2.11,2.11,0,0,0,1.64-1l.14-.19.1.22s.38.76,1,.8,1.06-.42,1.63-1.29a.14.14,0,1,1,.24.16q-1,1.47-1.89,1.41A1.55,1.55,0,0,1,36,23.9,2.26,2.26,0,0,1,34.3,24.84Z"></path>
		<circle class="cls-1" cx="36.26" cy="34.55" r="3.75"></circle>
		<path class="cls-4" d="M41.23,31.5,38.1,32.81l1.15-5.63-7.5,9.76,3.13-1.31-1.15,5.64Zm-7.39,3.83L38,29.92l-.81,4,2-.82L35,38.52l.81-4Z"></path>
		<circle class="cls-4" cx="32.44" cy="32.74" r="1.12"></circle>
		<circle class="cls-4" cx="38.96" cy="37.13" r="0.79"></circle>
		<circle class="cls-4" cx="39.92" cy="35.4" r="0.35"></circle>
		<path class="cls-2" d="M45.88,21.16a57.46,57.46,0,0,0-5.09,5.21,31.88,31.88,0,0,1-5.31,4.9c-.22-.53-1.63-1.52-1.63-1.52s-3.14-2.15-5.2-3.84a31.9,31.9,0,0,1-3.14-3l-2-.11a22.63,22.63,0,0,0,12,8.84c.86-.14,3.28-1.87,5.09-3.28a57.66,57.66,0,0,0,6-5.91,6.38,6.38,0,0,0,1.14-2C46.6,20.83,45.88,21.16,45.88,21.16Z"></path>
		<polygon class="cls-1" points="65.22 3.5 56.76 12.94 55.54 10.95 63.69 0 65.22 3.5"></polygon>
		<polygon class="cls-1" points="62.65 17.26 68.19 13.15 67.41 9.41 62.01 14.22 62.65 17.26"></polygon>
		<polygon class="cls-1" points="59.92 49.37 66.05 52.55 69.06 50.21 62.37 47.46 59.92 49.37"></polygon>
		<polygon class="cls-1" points="1.95 5.97 5.02 2.61 14.31 11.61 13.09 13.89 1.95 5.97"></polygon>
		<polygon class="cls-1" points="7.38 16.28 2.68 13.15 0.28 17.02 5.43 19.42 7.38 16.28"></polygon>
		<polygon class="cls-1" points="13.91 52.55 9.36 55.9 12.16 59.48 16.18 55.46 13.91 52.55"></polygon>
		<path class="cls-2" d="M25.93,28s-3.81-1.44-5.21-1.83a3.76,3.76,0,0,0-4,.63,5.07,5.07,0,0,0-1.73,3.85,7.14,7.14,0,0,1,.48,1.45c.05.48-1.2.43-2,.43s-.92-1.44-.29-3.13A22.81,22.81,0,0,1,15,25.66c-5.45,2.84-15,9.4-15,9.4a45.82,45.82,0,0,1,8.19.24c5.25.53,5,4.67,5,4.67a38.63,38.63,0,0,1,5.63-1.11c2.12-.14,2.27,2.12,2.27,2.12l.53,3.86a18.29,18.29,0,0,1,2.65-2.36,6.06,6.06,0,0,1,4.38-1.3h0Z"></path>
		<path class="cls-4" d="M85.66,42a8.29,8.29,0,0,1-1.4-5.19v-7.5a8.42,8.42,0,0,1,1.38-5.24q1.39-1.79,4.75-1.78t4.55,1.57a6.72,6.72,0,0,1,1.33,4.49v1.76H92.13V28.2A10,10,0,0,0,92,26.7a1.68,1.68,0,0,0-.47-.95,1.56,1.56,0,0,0-1.15-.37,1.46,1.46,0,0,0-1.5.75,5.47,5.47,0,0,0-.34,2.2v9.52a4.78,4.78,0,0,0,.39,2.2,1.48,1.48,0,0,0,1.45.73,1.35,1.35,0,0,0,1.4-.74,5.84,5.84,0,0,0,.31-2.19v-2h4.14v1.73A7.25,7.25,0,0,1,95,42.19c-.88,1.1-2.4,1.64-4.56,1.64S86.59,43.23,85.66,42Z"></path>
		<path class="cls-4" d="M101.91,22.58h4.74l4,21h-3.94L106,38.94h-3.32l-.8,4.61h-4Zm3.65,13.72-1.26-8.44-1.25,8.44Z"></path>
		<path class="cls-4" d="M113.72,25.74h-3.24V22.58H121.2v3.16H118V43.55h-4.29Z"></path>
		<path class="cls-5" d="M129.61,22.58h8.13v2.18h-5.2v6.93h4.22v2.07h-4.22v7.69h5.25v2.1h-8.18Z"></path>
		<path class="cls-5" d="M140.15,22.58h2l6,13.93V22.58h2.44v21h-1.87l-6-14.32V43.55h-2.48Z"></path>
		<path class="cls-5" d="M153.82,22.58h8.12v2.18h-5.2v6.93H161v2.07h-4.22v7.69H162v2.1h-8.18Z"></path>
		<path class="cls-5" d="M164.35,22.58h4.22a7,7,0,0,1,4.67,1.31c1,.87,1.49,2.29,1.49,4.26q0,4-2.59,4.89l3,10.51H172.3l-2.75-9.84h-2.27v9.84h-2.93Zm4,9a3.87,3.87,0,0,0,2.7-.76,3.57,3.57,0,0,0,.82-2.71,5.85,5.85,0,0,0-.29-2,1.89,1.89,0,0,0-1-1.08,4.76,4.76,0,0,0-2.05-.35h-1.29v6.94Z"></path>
		<path class="cls-5" d="M178.67,42a9.25,9.25,0,0,1-1.27-5.35v-7a13.5,13.5,0,0,1,.5-4,4.48,4.48,0,0,1,1.74-2.41A5.91,5.91,0,0,1,183,22.4a5.26,5.26,0,0,1,4.18,1.48,7,7,0,0,1,1.28,4.63v.78h-2.75v-.65a11.48,11.48,0,0,0-.18-2.32,2,2,0,0,0-.76-1.23,3,3,0,0,0-1.72-.41,2.52,2.52,0,0,0-1.81.56,2.56,2.56,0,0,0-.77,1.48,14.8,14.8,0,0,0-.17,2.49V37a7.51,7.51,0,0,0,.59,3.46,2.83,2.83,0,0,0,4.47-.09,8.11,8.11,0,0,0,.61-3.65V35.24h-2.66V33.17h5.3V43.55H186.8l-.29-2.41a3.69,3.69,0,0,1-3.73,2.67A4.66,4.66,0,0,1,178.67,42Z"></path>
		<path class="cls-5" d="M194.69,36.15l-4.53-13.57h2.72l3.21,10.12,3.16-10.12H202l-4.5,13.57v7.4h-2.8Z"></path>
	</g>
</svg>